# Blender 3.4.1
# www.blender.org
mtllib light.3.mtl
g Сфера.003_Сфера.003
v 0.261477 0.397892 -1.634984
v 0.319226 0.302541 -1.745015
v 0.363538 0.178277 -1.829444
v 0.391393 0.033568 -1.882519
v 0.363538 -0.421723 -1.829444
v 0.261477 -0.641338 -1.634984
v 0.194228 -0.701279 -1.506851
v 0.368955 0.397892 -1.539767
v 0.471223 0.302541 -1.610357
v 0.549695 0.178277 -1.664523
v 0.599025 0.033568 -1.698573
v 0.615851 -0.121723 -1.710187
v 0.471223 -0.545987 -1.610357
v 0.368955 -0.641338 -1.539767
v 0.276220 0.457832 -1.388066
v 0.419873 0.397892 -1.405509
v 0.543231 0.302541 -1.420487
v 0.637887 0.178277 -1.431980
v 0.697390 0.033568 -1.439205
v 0.717686 -0.121723 -1.441670
v 0.697390 -0.277015 -1.439205
v 0.637887 -0.421723 -1.431980
v 0.419873 -0.641338 -1.405509
v 0.276220 -0.701279 -1.388066
v 0.402565 0.397892 -1.262966
v 0.518754 0.302541 -1.218902
v 0.607909 0.178277 -1.185090
v 0.663954 0.033568 -1.163834
v 0.683070 -0.121723 -1.156585
v 0.402565 -0.641338 -1.262966
v 0.225038 0.457832 -1.253110
v 0.320997 0.397892 -1.144794
v 0.403399 0.302541 -1.051781
v 0.466629 0.178277 -0.980410
v 0.506377 0.033568 -0.935544
v 0.506377 -0.277015 -0.935544
v 0.403399 -0.545987 -1.051781
v 0.320997 -0.641338 -1.144794
v 0.225038 -0.701279 -1.253110
v 0.193855 0.397892 -1.078065
v 0.223593 0.302541 -0.957412
v 0.246412 0.178277 -0.864831
v 0.260757 0.033568 -0.806633
v 0.265650 -0.121723 -0.786783
v 0.246412 -0.421723 -0.864831
v 0.193855 -0.641338 -1.078065
v 0.084897 0.457832 -1.218569
v 0.050266 0.397892 -1.078065
v 0.020527 0.302541 -0.957412
v -0.002292 0.178277 -0.864831
v -0.016636 0.033568 -0.806633
v 0.050266 -0.641338 -1.078065
v 0.084897 -0.701279 -1.218569
v -0.076876 0.397892 -1.144794
v -0.159279 0.302541 -1.051781
v -0.222508 0.178277 -0.980410
v -0.262256 0.033568 -0.935544
v -0.076876 -0.641338 -1.144794
v 0.122060 -0.721723 -1.369348
v -0.023140 0.457832 -1.314281
v -0.158445 0.397892 -1.262966
v -0.274633 0.302541 -1.218902
v -0.363788 0.178277 -1.185089
v -0.419834 0.033568 -1.163834
v -0.158445 -0.641338 -1.262966
v -0.175752 0.397892 -1.405509
v -0.299110 0.302541 -1.420487
v -0.393766 0.178277 -1.431980
v -0.453270 0.033568 -1.439205
v -0.473565 -0.121723 -1.441670
v -0.175752 -0.641338 -1.405509
v -0.032099 -0.701279 -1.388066
v -0.005742 0.457832 -1.457563
v -0.124835 0.397892 -1.539767
v -0.227102 0.302541 -1.610357
v -0.305575 0.178277 -1.664523
v -0.354905 0.033568 -1.698573
v -0.227102 -0.545987 -1.610357
v -0.124835 -0.641338 -1.539767
v -0.017357 0.397892 -1.634984
v -0.075105 0.302541 -1.745015
v -0.119417 0.178277 -1.829444
v -0.147273 0.033568 -1.882519
v -0.017357 -0.641338 -1.634984
v 0.049893 -0.701279 -1.506851
v 0.122060 0.478277 -1.369348
v 0.122060 0.457832 -1.524639
v 0.122060 0.397892 -1.669348
v 0.122060 0.302541 -1.793612
v 0.122060 0.178277 -1.888963
v 0.122060 0.033568 -1.948903
v 0.122060 -0.641338 -1.669348
v 0.401050 -0.121723 -1.900917
v 0.394493 -0.278802 -1.888425
v 0.321495 -0.550870 -1.749338
v 0.227919 -0.975933 -1.571044
v 0.176857 -1.021446 -1.473753
v 0.604515 -0.278802 -1.702362
v 0.554617 -0.425176 -1.667920
v 0.309526 -0.975933 -1.498746
v 0.548078 -0.550870 -1.421076
v 0.348188 -0.975933 -1.396804
v 0.670191 -0.278802 -1.161469
v 0.613501 -0.425176 -1.182969
v 0.523320 -0.550870 -1.217170
v 0.335046 -0.975933 -1.288573
v 0.232310 -1.021446 -1.327536
v 0.520156 -0.121723 -0.919991
v 0.470595 -0.425176 -0.975934
v 0.273112 -0.975933 -1.198846
v 0.262353 -0.278802 -0.800157
v 0.224762 -0.550870 -0.952671
v 0.176574 -0.975933 -1.148179
v 0.150278 -1.021446 -1.254862
v -0.021609 -0.121723 -0.786458
v -0.018233 -0.278802 -0.800157
v -0.003723 -0.425176 -0.859025
v 0.019359 -0.550870 -0.952671
v 0.067547 -0.975933 -1.148179
v -0.276035 -0.121723 -0.919991
v -0.266679 -0.278802 -0.930551
v -0.226474 -0.425176 -0.975934
v -0.162517 -0.550870 -1.048127
v -0.028991 -0.975933 -1.198846
v 0.043870 -1.021446 -1.281089
v 0.122060 -1.036969 -1.369348
v -0.439262 -0.121723 -1.156466
v -0.426070 -0.278802 -1.161469
v -0.369380 -0.425176 -1.182969
v -0.279199 -0.550870 -1.217170
v -0.090925 -0.975933 -1.288573
v -0.459891 -0.278802 -1.440009
v -0.399703 -0.425176 -1.432701
v -0.303958 -0.550870 -1.421076
v -0.104067 -0.975933 -1.396804
v 0.005008 -1.021446 -1.383560
v -0.372005 -0.121723 -1.710377
v -0.360394 -0.278802 -1.702362
v -0.310496 -0.425176 -1.667920
v -0.065406 -0.975933 -1.498746
v -0.156929 -0.121723 -1.900917
v -0.150372 -0.278802 -1.888425
v -0.122196 -0.425176 -1.834739
v -0.077374 -0.550870 -1.749339
v 0.016202 -0.975933 -1.571044
v 0.067264 -1.021446 -1.473753
v 0.122060 -0.121723 -1.969682
v 0.122060 -0.278802 -1.955573
v 0.122060 -0.425176 -1.894943
v 0.122060 -0.550870 -1.798495
v 0.122060 -0.975933 -1.597136
vn -0.0000 0.6973 -0.7168
vn -0.0079 0.8618 -0.5072
vn 0.2378 0.8674 -0.4371
vn 0.3331 0.6973 -0.6347
vn -0.0021 -0.8725 -0.4886
vn -0.0000 -0.8190 -0.5737
vn 0.2801 -0.8138 -0.5091
vn 0.2303 -0.8757 -0.4244
vn -0.0000 0.4916 -0.8708
vn 0.4047 0.4916 -0.7711
vn -0.1160 -0.9632 -0.2427
vn 0.1257 -0.9627 -0.2396
vn 0.0067 -0.4930 -0.8700
vn 0.0026 -0.2389 -0.9710
vn 0.4510 -0.2427 -0.8589
vn 0.4059 -0.4962 -0.7675
vn -0.0000 0.2550 -0.9669
vn 0.4495 0.2548 -0.8562
vn -0.0064 -1.0000 0.0044
vn 0.0233 0.9648 -0.2621
vn 0.0089 -0.6010 -0.7992
vn 0.3768 -0.5992 -0.7064
vn -0.0000 0.0214 -0.9998
vn 0.4649 0.0214 -0.8851
vn 0.8017 -0.2441 -0.5456
vn 0.7162 -0.4974 -0.4896
vn 0.7167 0.4916 -0.4947
vn 0.7960 0.2542 -0.5493
vn 0.2656 -0.9632 -0.0424
vn 0.2574 0.9648 -0.0548
vn 0.4052 0.8674 -0.2888
vn 0.6529 -0.6088 -0.4507
vn 0.8246 0.0159 -0.5654
vn 0.5899 0.6973 -0.4072
vn 0.4892 -0.8041 -0.3377
vn 0.4136 -0.8654 -0.2829
vn 0.0051 1.0000 -0.0058
vn 0.9927 0.0109 -0.1205
vn 0.9632 -0.2420 -0.1170
vn 0.7116 0.6973 -0.0864
vn 0.8645 0.4916 -0.1050
vn 0.4871 -0.8715 -0.0579
vn 0.8675 -0.4856 -0.1080
vn 0.9602 0.2540 -0.1166
vn 0.5045 0.8618 -0.0533
vn 0.7941 -0.5992 -0.1018
vn 0.5754 -0.8138 -0.0813
vn 0.8174 -0.4883 0.3056
vn 0.7418 -0.6105 0.2776
vn 0.9044 0.2542 0.3428
vn 0.9351 0.0105 0.3543
vn 0.4758 0.8604 0.1827
vn 0.6702 0.6973 0.2542
vn 0.5392 -0.8138 0.2167
vn 0.4578 -0.8700 0.1830
vn 0.9088 -0.2396 0.3417
vn 0.8143 0.4916 0.3088
vn 0.1858 -0.9632 0.1945
vn 0.1858 0.9632 0.1945
vn 0.6421 -0.2383 0.7287
vn 0.5729 -0.4902 0.6569
vn 0.5775 0.4916 0.6518
vn 0.6413 0.2545 0.7239
vn 0.3304 0.8618 0.3849
vn 0.5154 -0.6164 0.5952
vn 0.6631 0.0109 0.7485
vn 0.4753 0.6973 0.5366
vn 0.3942 -0.8041 0.4449
vn 0.3248 -0.8668 0.3785
vn 0.1501 -0.8138 0.5614
vn 0.1224 -0.8701 0.4775
vn 0.2420 0.0159 0.9701
vn 0.2381 -0.2432 0.9403
vn 0.1715 0.6973 0.6960
vn 0.2084 0.4916 0.8455
vn -0.0752 -0.9654 0.2496
vn -0.0545 0.9632 0.2634
vn 0.2148 -0.4915 0.8440
vn 0.2314 0.2545 0.9390
vn 0.1199 0.8604 0.4954
vn 0.1968 -0.5992 0.7760
vn -0.1291 0.8618 0.4906
vn -0.2017 -0.4930 0.8464
vn -0.1827 -0.6010 0.7781
vn -0.2313 0.2548 0.9389
vn -0.2390 0.0214 0.9708
vn -0.1715 0.6973 0.6960
vn -0.1373 -0.8190 0.5571
vn -0.1182 -0.8696 0.4794
vn -0.2297 -0.2387 0.9435
vn -0.2084 0.4916 0.8455
vn -0.3214 -0.8793 0.3516
vn -0.2496 0.9637 0.0947
vn -0.5775 0.4916 0.6518
vn -0.6412 0.2550 0.7238
vn -0.3396 0.8604 0.3801
vn -0.6630 0.0214 0.7483
vn -0.4753 0.6973 0.5366
vn -0.3805 -0.8190 0.4295
vn -0.4813 0.8574 0.1825
vn -0.6702 0.6973 0.2542
vn -0.5365 -0.8190 0.2035
vn -0.4427 -0.8793 0.1758
vn -0.8143 0.4916 0.3088
vn -0.2600 -0.9654 -0.0182
vn -0.9042 0.2548 0.3428
vn -0.9349 0.0214 0.3543
vn -0.5062 0.8604 -0.0593
vn -0.9600 0.2545 -0.1166
vn -0.9925 0.0214 -0.1205
vn -0.7116 0.6973 -0.0864
vn -0.5754 -0.8138 -0.0813
vn -0.4936 -0.8671 -0.0666
vn -0.9093 -0.2334 0.3447
vn -0.9654 -0.2331 -0.1172
vn -0.8645 0.4916 -0.1050
vn -0.5899 0.6973 -0.4072
vn -0.7167 0.4916 -0.4947
vn -0.4136 -0.8654 -0.2829
vn -0.2154 0.9632 -0.1610
vn -0.7959 0.2548 -0.5492
vn -0.4219 0.8618 -0.2816
vn -0.7796 -0.6182 -0.1001
vn -0.8615 -0.4963 -0.1073
vn -0.7131 -0.4992 -0.4922
vn -0.6430 -0.6241 -0.4439
vn -0.8230 0.0214 -0.5677
vn -0.4892 -0.8041 -0.3377
vn -0.8003 -0.2334 -0.5523
vn -0.2387 0.8604 -0.4503
vn -0.3331 0.6973 -0.6347
vn -0.2801 -0.8138 -0.5091
vn -0.2408 -0.8714 -0.4275
vn -0.4047 0.4916 -0.7711
vn -0.4494 0.2550 -0.8562
vn -0.4058 -0.4963 -0.7675
vn -0.3701 -0.6182 -0.6935
vn -0.4646 0.0214 -0.8853
vn -0.0000 -0.4281 -0.9037
vn 0.4305 -0.4259 -0.7958
vn 0.4296 -0.4259 -0.7962
vn -0.0048 -0.9290 -0.3701
vn 0.1531 -0.9313 -0.3304
vn 0.1425 -0.9648 -0.2212
vn 0.0072 -1.0000 -0.0027
vn 0.7469 -0.4200 -0.5155
vn 0.2889 -0.9405 -0.1788
vn 0.3349 -0.9405 -0.0577
vn 0.2534 -0.9648 0.0711
vn 0.8967 -0.4259 -0.1203
vn 0.8969 -0.4259 -0.1194
vn 0.8419 -0.4259 0.3314
vn 0.8422 -0.4259 0.3305
vn 0.3337 -0.9313 0.1458
vn 0.0741 -0.9632 0.2585
vn 0.6018 -0.4200 0.6793
vn 0.2418 -0.9290 0.2802
vn 0.2275 -0.4259 0.8757
vn 0.2266 -0.4259 0.8759
vn 0.0695 -0.9313 0.3575
vn -0.2163 -0.4281 0.8775
vn -0.0933 -0.9290 0.3582
vn -0.1707 -0.9632 0.2079
vn -0.2547 -0.9313 0.2603
vn -0.6448 -0.2336 0.7278
vn -0.5775 -0.4916 0.6518
vn -0.5261 -0.6088 0.5938
vn -0.5993 -0.4281 0.6764
vn -0.8450 -0.4281 0.3205
vn -0.3478 -0.9290 0.1267
vn -0.2650 -0.9637 -0.0322
vn -0.8143 -0.4916 0.3088
vn -0.7418 -0.6088 0.2813
vn -0.8967 -0.4259 -0.1203
vn -0.8969 -0.4259 -0.1194
vn -0.3799 -0.9239 -0.0461
vn -0.3073 -0.9290 -0.2063
vn -0.7469 -0.4200 -0.5155
vn -0.4305 -0.4259 -0.7958
vn -0.4296 -0.4259 -0.7962
vn -0.4519 -0.2336 -0.8610
vn -0.1850 -0.9313 -0.3137
vt 0.615385 0.833333
vt 0.615385 0.750000
vt 0.615385 0.666667
vt 0.615385 0.583333
vt 0.615385 0.333333
vt 0.615385 0.166667
vt 0.615385 0.083333
vt 0.538462 0.833333
vt 0.538462 0.750000
vt 0.538462 0.666667
vt 0.538462 0.583333
vt 0.538462 0.500000
vt 0.538462 0.250000
vt 0.538462 0.166667
vt 0.538462 0.916667
vt 0.461538 0.916667
vt 0.461538 0.833333
vt 0.461538 0.750000
vt 0.461538 0.666667
vt 0.461538 0.583333
vt 0.461538 0.500000
vt 0.461538 0.416667
vt 0.461538 0.333333
vt 0.461538 0.166667
vt 0.538462 0.083333
vt 0.461538 0.083333
vt 0.384615 0.833333
vt 0.384615 0.750000
vt 0.384615 0.666667
vt 0.384615 0.583333
vt 0.384615 0.500000
vt 0.384615 0.166667
vt 0.384615 0.916667
vt 0.307692 0.916667
vt 0.307692 0.833333
vt 0.307692 0.750000
vt 0.307692 0.666667
vt 0.307692 0.583333
vt 0.307692 0.416667
vt 0.307692 0.250000
vt 0.307692 0.166667
vt 0.384615 0.083333
vt 0.307692 0.083333
vt 0.230769 0.833333
vt 0.230769 0.750000
vt 0.230769 0.666667
vt 0.230769 0.583333
vt 0.230769 0.500000
vt 0.230769 0.333333
vt 0.230769 0.166667
vt 0.230769 0.916667
vt 0.153846 0.916667
vt 0.153846 0.833333
vt 0.153846 0.750000
vt 0.153846 0.666667
vt 0.153846 0.583333
vt 0.153846 0.166667
vt 0.230769 0.083333
vt 0.153846 0.083333
vt 0.076923 0.083333
vt 0.076923 0.833333
vt 0.076923 0.750000
vt 0.076923 0.666667
vt 0.076923 0.583333
vt 0.076923 0.166667
vt 0.653846 0.000000
vt 0.576923 0.000000
vt 0.423077 0.000000
vt 0.269231 0.000000
vt 0.038462 0.000000
vt 0.807692 0.000000
vt 0.076923 0.916667
vt 0.000000 0.916667
vt 0.923077 0.916667
vt 0.000000 0.833333
vt 1.000000 0.833333
vt 0.000000 0.750000
vt 1.000000 0.750000
vt 0.000000 0.666667
vt 1.000000 0.666667
vt 0.000000 0.583333
vt 1.000000 0.583333
vt 0.000000 0.166667
vt 1.000000 0.166667
vt 0.923077 0.833333
vt 0.923077 0.750000
vt 0.923077 0.666667
vt 0.923077 0.583333
vt 0.923077 0.500000
vt 0.923077 0.166667
vt 0.000000 0.083333
vt 1.000000 0.083333
vt 0.923077 0.083333
vt 0.846154 0.083333
vt 0.846154 0.916667
vt 0.769231 0.916667
vt 0.846154 0.833333
vt 0.846154 0.750000
vt 0.846154 0.666667
vt 0.846154 0.583333
vt 0.846154 0.250000
vt 0.846154 0.166667
vt 0.769231 0.833333
vt 0.769231 0.750000
vt 0.769231 0.666667
vt 0.769231 0.583333
vt 0.769231 0.166667
vt 0.692308 0.083333
vt 0.769231 0.083333
vt 0.576923 1.000000
vt 0.423077 1.000000
vt 0.269231 1.000000
vt 0.115385 1.000000
vt 0.884615 1.000000
vt 0.730769 1.000000
vt 0.615385 0.916667
vt 0.692308 0.916667
vt 0.692308 0.833333
vt 0.692308 0.750000
vt 0.692308 0.666667
vt 0.692308 0.583333
vt 0.692308 0.166667
vt 0.615385 0.500000
vt 0.615385 0.416667
vt 0.615385 0.250000
vt 0.615385 0.166667
vt 0.615385 0.083333
vt 0.538462 0.083333
vt 0.538462 0.416667
vt 0.538462 0.333333
vt 0.538462 0.166667
vt 0.461538 0.250000
vt 0.461538 0.166667
vt 0.384615 0.416667
vt 0.384615 0.333333
vt 0.384615 0.250000
vt 0.384615 0.166667
vt 0.461538 0.083333
vt 0.384615 0.083333
vt 0.307692 0.500000
vt 0.307692 0.333333
vt 0.307692 0.166667
vt 0.230769 0.416667
vt 0.230769 0.250000
vt 0.230769 0.166667
vt 0.307692 0.083333
vt 0.230769 0.083333
vt 0.153846 0.500000
vt 0.153846 0.416667
vt 0.153846 0.333333
vt 0.153846 0.250000
vt 0.153846 0.166667
vt 0.076923 0.500000
vt 0.076923 0.416667
vt 0.076923 0.333333
vt 0.076923 0.250000
vt 0.076923 0.166667
vt 0.153846 0.083333
vt 0.076923 0.083333
vt 0.653846 0.000000
vt 0.500000 0.000000
vt 0.346154 0.000000
vt 0.192308 0.000000
vt 0.038462 0.000000
vt 0.807692 0.000000
vt 1.000000 0.500000
vt 0.000000 0.500000
vt 0.000000 0.416667
vt 1.000000 0.416667
vt 0.000000 0.333333
vt 1.000000 0.333333
vt 0.000000 0.250000
vt 1.000000 0.250000
vt 0.000000 0.166667
vt 1.000000 0.166667
vt 0.923077 0.416667
vt 0.923077 0.333333
vt 0.923077 0.250000
vt 0.923077 0.166667
vt 0.000000 0.083333
vt 1.000000 0.083333
vt 0.923077 0.083333
vt 0.846154 0.083333
vt 0.846154 0.500000
vt 0.846154 0.416667
vt 0.846154 0.333333
vt 0.846154 0.166667
vt 0.769231 0.500000
vt 0.769231 0.416667
vt 0.769231 0.333333
vt 0.769231 0.250000
vt 0.769231 0.166667
vt 0.692308 0.083333
vt 0.769231 0.083333
vt 0.692308 0.500000
vt 0.692308 0.416667
vt 0.692308 0.333333
vt 0.692308 0.250000
vt 0.692308 0.166667
s 1
g off
g Сфера.003_Материал.001
usemtl Материал.001
f 89/119/1 88/118/2 1/1/3 2/2/4
s 2
f 92/122/5 150/198/6 95/125/7 6/6/8
s 1
f 90/120/9 89/119/1 2/2/4 3/3/10
s 2
f 85/108/11 92/122/5 6/6/8 7/7/12
s 1
f 149/197/13 148/196/14 94/124/15 5/5/16
f 91/121/17 90/120/9 3/3/10 4/4/18
s 2
f 59/66/19 85/108/11 7/7/12
s 1
f 88/118/2 87/116/20 1/1/3
f 150/198/21 149/197/13 5/5/16 95/125/22
f 147/195/23 91/121/17 4/4/18 93/123/24
f 5/5/16 94/124/15 98/129/25 99/130/26
f 4/4/18 3/3/10 10/10/27 11/11/28
s 2
f 59/67/19 7/7/12 24/25/29
s 1
f 1/1/3 87/116/20 15/15/30 8/8/31
f 95/125/22 5/5/16 99/130/26 13/13/32
f 93/123/24 4/4/18 11/11/28 12/12/33
f 2/2/4 1/1/3 8/8/31 9/9/34
s 2
f 6/6/8 95/125/7 13/13/35 14/14/36
s 1
f 94/124/15 93/123/24 12/12/33 98/129/25
f 3/3/10 2/2/4 9/9/34 10/10/27
s 2
f 7/7/12 6/6/8 14/14/36 24/25/29
s 1
f 87/116/20 86/110/37 15/15/30
f 98/129/25 12/12/33 20/21/38 21/22/39
f 10/10/27 9/9/34 17/18/40 18/19/41
s 2
f 24/25/29 14/14/36 23/24/42
s 1
f 99/130/26 98/129/25 21/22/39 22/23/43
f 11/11/28 10/10/27 18/19/41 19/20/44
f 8/8/31 15/16/30 16/17/45
f 13/13/32 99/130/26 22/23/43 101/132/46
f 12/12/33 11/11/28 19/20/44 20/21/38
f 9/9/34 8/8/31 16/17/45 17/18/40
s 2
f 14/14/36 13/13/35 101/132/47 23/24/42
s 1
f 101/132/46 22/23/43 104/135/48 105/136/49
f 20/21/38 19/20/44 28/30/50 29/31/51
f 17/18/40 16/17/45 25/27/52 26/28/53
s 2
f 23/24/42 101/132/47 105/136/54 30/32/55
s 1
f 21/22/39 20/21/38 29/31/51 103/134/56
f 18/19/41 17/18/40 26/28/53 27/29/57
s 2
f 24/26/29 23/24/42 30/32/55 39/42/58
s 1
f 15/16/30 86/111/37 31/33/59
f 22/23/43 21/22/39 103/134/56 104/135/48
f 19/20/44 18/19/41 27/29/57 28/30/50
s 2
f 59/68/19 24/26/29 39/42/58
s 1
f 16/17/45 15/16/30 31/33/59 25/27/52
f 104/135/48 103/134/56 36/39/60 109/141/61
f 28/30/50 27/29/57 34/37/62 35/38/63
f 25/27/52 31/34/59 32/35/64
f 105/136/49 104/135/48 109/141/61 37/40/65
f 29/31/51 28/30/50 35/38/63 108/140/66
f 26/28/53 25/27/52 32/35/64 33/36/67
s 2
f 30/32/55 105/136/54 37/40/68 38/41/69
s 1
f 103/134/56 29/31/51 108/140/66 36/39/60
f 27/29/57 26/28/53 33/36/67 34/37/62
s 2
f 39/42/58 30/32/55 38/41/69
f 38/41/69 37/40/68 112/144/70 46/50/71
s 1
f 36/39/60 108/140/66 44/48/72 111/143/73
f 34/37/62 33/36/67 41/45/74 42/46/75
s 2
f 39/43/58 38/41/69 46/50/71 53/58/76
s 1
f 31/34/59 86/112/37 47/51/77
f 109/141/61 36/39/60 111/143/73 45/49/78
f 35/38/63 34/37/62 42/46/75 43/47/79
s 2
f 59/69/19 39/43/58 53/58/76
s 1
f 32/35/64 31/34/59 47/51/77 40/44/80
f 37/40/65 109/141/61 45/49/78 112/144/81
f 108/140/66 35/38/63 43/47/79 44/48/72
f 33/36/67 32/35/64 40/44/80 41/45/74
f 40/44/80 47/52/77 48/53/82
f 112/144/81 45/49/78 117/150/83 118/151/84
f 44/48/72 43/47/79 51/56/85 115/148/86
f 41/45/74 40/44/80 48/53/82 49/54/87
s 2
f 46/50/71 112/144/70 118/151/88 52/57/89
s 1
f 111/143/73 44/48/72 115/148/86 116/149/90
f 42/46/75 41/45/74 49/54/87 50/55/91
s 2
f 53/58/76 46/50/71 52/57/89
s 1
f 45/49/78 111/143/73 116/149/90 117/150/83
f 43/47/79 42/46/75 50/55/91 51/56/85
s 2
f 53/59/76 52/57/89 58/65/92
s 1
f 47/52/77 86/113/37 60/72/93
f 51/56/85 50/55/91 56/63/94 57/64/95
f 48/53/82 47/52/77 60/72/93 54/61/96
f 115/148/86 51/56/85 57/64/95 120/153/97
f 49/54/87 48/53/82 54/61/96 55/62/98
s 2
f 52/57/89 118/151/88 123/156/99 58/65/92
s 1
f 50/55/91 49/54/87 55/62/98 56/63/94
f 55/62/98 54/61/96 61/75/100 62/77/101
s 2
f 58/65/92 123/156/99 130/172/102 65/83/103
s 1
f 56/63/94 55/62/98 62/77/101 63/79/104
s 2
f 53/60/76 58/65/92 65/83/103 72/91/105
s 1
f 57/64/95 56/63/94 63/79/104 64/81/106
s 2
f 59/70/19 53/60/76 72/91/105
s 1
f 54/61/96 60/73/93 61/75/100
f 120/153/97 57/64/95 64/81/106 127/167/107
f 61/76/100 60/74/93 66/85/108
f 127/166/107 64/82/106 69/88/109 70/89/110
f 62/78/101 61/76/100 66/85/108 67/86/111
s 2
f 65/84/103 130/173/102 134/178/112 71/90/113
s 1
f 128/169/114 127/166/107 70/89/110 132/176/115
f 63/80/104 62/78/101 67/86/111 68/87/116
s 2
f 72/92/105 65/84/103 71/90/113
s 1
f 64/82/106 63/80/104 68/87/116 69/88/109
f 68/87/116 67/86/111 75/98/117 76/99/118
s 2
f 72/93/105 71/90/113 79/102/119
s 1
f 60/74/93 86/114/37 73/95/120
f 69/88/109 68/87/116 76/99/118 77/100/121
f 66/85/108 60/74/93 73/95/120 74/97/122
f 134/178/123 133/177/124 139/186/125 78/101/126
f 70/89/110 69/88/109 77/100/121 137/184/127
f 67/86/111 66/85/108 74/97/122 75/98/117
s 2
f 71/90/113 134/178/112 78/101/128 79/102/119
s 1
f 132/176/115 70/89/110 137/184/127 138/185/129
f 75/98/117 74/97/122 80/103/130 81/104/131
s 2
f 79/102/119 78/101/128 144/191/132 84/107/133
s 1
f 76/99/118 75/98/117 81/104/131 82/105/134
s 2
f 72/94/105 79/102/119 84/107/133 85/109/11
s 1
f 77/100/121 76/99/118 82/105/134 83/106/135
s 2
f 59/71/19 72/94/105 85/109/11
s 1
f 74/97/122 73/96/120 80/103/130
f 78/101/126 139/186/125 143/190/136 144/191/137
f 137/184/127 77/100/121 83/106/135 141/188/138
f 83/106/135 82/105/134 90/120/9 91/121/17
f 80/103/130 73/96/120 87/117/20 88/118/2
f 141/188/138 83/106/135 91/121/17 147/195/23
f 81/104/131 80/103/130 88/118/2 89/119/1
s 2
f 84/107/133 144/191/132 150/198/6 92/122/5
s 1
f 82/105/134 81/104/131 89/119/1 90/120/9
s 2
f 85/109/11 84/107/133 92/122/5
s 1
f 73/96/120 86/115/37 87/117/20
s 4
g Сфера.003_Материал
usemtl Материал
f 151/199/139 150/198/139 95/125/140 96/126/141
s 1
f 148/196/14 147/195/23 93/123/24 94/124/15
s 4
f 146/193/11 151/199/142 96/126/143 97/127/144
f 126/160/145 146/193/11 97/127/144
f 96/126/141 95/125/140 13/13/146 100/131/146
f 97/127/144 96/126/143 100/131/147
f 97/128/144 100/131/147 102/133/148 107/138/149
f 126/161/145 97/128/144 107/138/149
f 100/131/146 13/13/146 101/132/150 102/133/151
f 102/133/151 101/132/150 105/136/152 106/137/153
f 107/138/149 102/133/148 106/137/154
f 126/162/145 107/139/149 114/146/155
f 106/137/153 105/136/152 37/40/156 110/142/156
f 107/139/149 106/137/154 110/142/157 114/146/155
f 110/142/156 37/40/156 112/144/158 113/145/159
f 114/146/155 110/142/157 113/145/160
f 113/145/159 112/144/158 118/151/161 119/152/161
f 114/147/155 113/145/160 119/152/162 125/158/163
f 126/163/145 114/147/155 125/158/163
f 125/158/163 119/152/162 124/157/164
s 1
f 117/150/83 116/149/90 121/154/165 122/155/166
f 118/151/84 117/150/83 122/155/166 123/156/167
s 4
f 119/152/161 118/151/161 123/156/168 124/157/168
s 1
f 116/149/90 115/148/86 120/153/97 121/154/165
s 4
f 124/157/168 123/156/168 130/172/169 131/174/169
s 1
f 121/154/165 120/153/97 127/167/107 128/168/114
s 4
f 125/159/163 124/157/164 131/174/170 136/180/171
s 1
f 122/155/166 121/154/165 128/168/114 129/170/172
s 4
f 126/164/145 125/159/163 136/180/171
s 1
f 123/156/167 122/155/166 129/170/172 130/172/173
f 130/173/173 129/171/172 133/177/124 134/178/123
s 4
f 131/175/169 130/173/169 134/178/174 135/179/175
f 136/181/171 131/175/170 135/179/176
s 1
f 129/171/172 128/169/114 132/176/115 133/177/124
s 4
f 136/182/171 135/179/176 140/187/177
s 1
f 133/177/124 132/176/115 138/185/129 139/186/125
s 4
f 135/179/175 134/178/174 78/101/178 140/187/178
f 140/187/178 78/101/178 144/191/179 145/192/180
s 1
f 138/185/129 137/184/127 141/188/138 142/189/181
s 4
f 136/183/171 140/187/177 145/192/182 146/194/11
s 1
f 139/186/125 138/185/129 142/189/181 143/190/136
s 4
f 126/165/145 136/183/171 146/194/11
s 1
f 144/191/137 143/190/136 149/197/13 150/198/21
s 4
f 145/192/180 144/191/179 150/198/139 151/199/139
s 1
f 142/189/181 141/188/138 147/195/23 148/196/14
s 4
f 146/194/11 145/192/182 151/199/142
s 1
f 143/190/136 142/189/181 148/196/14 149/197/13
